<svg xmlns="http://www.w3.org/2000/svg" xmlns:xlink="http://www.w3.org/1999/xlink" viewBox="0 0 121.35 64.91"><defs><linearGradient id="White_Black" x1="27.83" y1="35.21" x2="49.22" y2="35.21" gradientUnits="userSpaceOnUse"><stop offset="0" stop-color="#fff"/><stop offset="1"/></linearGradient><linearGradient id="White_Black-2" x1="45.71" y1="36.97" x2="52.67" y2="36.97" xlink:href="#White_Black"/></defs><title>penpalm</title><g style="isolation:isolate"><g id="logo"><g id="Typo"><g style="opacity:0.5;mix-blend-mode:multiply"><path d="M37.94,3.2A11.09,11.09,0,0,0,30.72,1,15.94,15.94,0,0,0,20,4.74q-4.34,3.74-4.34,7.78a4.9,4.9,0,0,0,.86,2.78,2.37,2.37,0,0,0,1.83,1.28,6.46,6.46,0,0,0,2.26-.78c1.07-.51,1.61-1,1.61-1.35s-.25-.67-.73-.88a2.75,2.75,0,0,1-1.85-2.77q0-3.06,3.41-5.62a12.41,12.41,0,0,1,7.63-2.57A6.52,6.52,0,0,1,35.06,4,4.86,4.86,0,0,1,36.69,7.9a9.28,9.28,0,0,1-2.36,5.8c-.68.89-1,1-1,1.55,0,.25.22.54.67.85a2.21,2.21,0,0,0,1.22.48c1,0,2.1-.69,3.42-2a7.49,7.49,0,0,0,2-5.45A7.22,7.22,0,0,0,37.94,3.2ZM77.22,35.48l-.29,0c-3.62.47-7.21,1.11-10.82,1.55a45.88,45.88,0,0,1-12.44.14c-.75-.1-1.5-.25-2.25-.42-.47-.11-.93-.22-1.4-.35,0,0,0,.07,0,.1a12.15,12.15,0,0,1-.23,1.23,38.39,38.39,0,0,0,3.85.56,32.83,32.83,0,0,0,3.59.16c3.78,0,7.51-.75,11.27-1a46.36,46.36,0,0,1,6.77.06l1.37.11c1.64.15,3.27.35,4.9.56.35-1.23.7-2.34,1-3.32C80.79,35.07,79,35.26,77.22,35.48ZM26.34,28.59a14.3,14.3,0,0,0,3.84-5.9C31.94,17.54,31,11.37,34.24,7a1.07,1.07,0,0,0,.26-.52c0-.55-.69-.76-1.22-.71-3,.28-5.32,2.76-6.51,5.49-2.23,5.07-1.42,11.21-4.09,16l-4.55-1.62a10.31,10.31,0,0,0-3.32-.78,3.51,3.51,0,0,0-3,1.37,3.29,3.29,0,0,0,.55,3.95,6.27,6.27,0,0,0,3.86,1.72,12.61,12.61,0,0,0,8.44-2c2.78,1,5.56,2,8.34,2.93l2.47.84q.45-.48.9-.9l.47-.43-2.32-.83Zm-8.56,1.65c-.83-.28-1.52-1.28-1.05-2s1.63-.55,2.47-.26l2.42.85A3.74,3.74,0,0,1,17.78,30.24Z"/><path d="M50,36.44s0,.07,0,.1a12.15,12.15,0,0,1-.23,1.23h0c-1.1-.21-2.19-.46-3.28-.74-1.32-.33-2.63-.71-4-1.1h0l-2-.62q-2.53-.8-5-1.64.45-.48.9-.9l.47-.43.31.11c2.28.81,4.55,1.59,6.85,2.3,1.06.33,2.12.65,3.19,1S49.08,36.21,50,36.44Z"/><path d="M105.71,30.76a2.7,2.7,0,0,1-.61.78,26.33,26.33,0,0,1-3,2.48c-.32.23-.48.43-.17.73s1,.63,1.47,1a.68.68,0,0,1,.25.31c.2.71-1,1.42-1.49,1.72a8.69,8.69,0,0,1-2.38,1A23.44,23.44,0,0,1,94,39.3,62.34,62.34,0,0,1,87.74,39L86,38.76l-1.74-.22-2.73-.34c.35-1.23.7-2.34,1-3.32,1-.1,2.05-.21,3.07-.33l1.68-.2c.65-.09,1.29-.17,1.93-.27,2.09-.31,4.14-.74,6.19-1.23,1-.24,1.92-.7,2.88-1s2-.63,3-.91a19.58,19.58,0,0,1,3.9-.86.59.59,0,0,1,.47.11A.53.53,0,0,1,105.71,30.76Z"/><path d="M52.92,25.94a7.42,7.42,0,0,0,0,2.36c.48-.42,1-.89,1.49-1.39V24.44C53.9,25,53.38,25.5,52.92,25.94Zm-4.5-12.5c-2.56,0-4.9,1.23-7,3.69a12.3,12.3,0,0,0-3.16,8.23,7.6,7.6,0,0,0,.6,3.11,5.24,5.24,0,0,0,1,1.54,15.67,15.67,0,0,1,4.44-2.14c.27-.07.55-.14.83-.19a4.28,4.28,0,0,1-1.17-1.56,7.72,7.72,0,0,1-.55-1.72q9.45-2.77,9.45-7.22a3.4,3.4,0,0,0-1.2-2.71A4.73,4.73,0,0,0,48.42,13.44Zm-5.22,9.5a10.85,10.85,0,0,1,1.29-5.62c.86-1.44,1.76-2.16,2.71-2.16s1.5.69,1.5,2.06Q48.7,21.39,43.2,22.94Z"/><path d="M53,28.3c-.51.46-1,.87-1.47,1.24a20.75,20.75,0,0,1-1.87,1.3l-.07,0a9.28,9.28,0,0,1-4.79,1.27,6.24,6.24,0,0,1-4.72-1.87L39.82,30a15.67,15.67,0,0,1,4.44-2.14c.27-.07.55-.14.83-.19a4.15,4.15,0,0,0,2.77.91l.45,0A5.11,5.11,0,0,0,50.22,28l.35-.19a15.56,15.56,0,0,0,2.35-1.88A7.42,7.42,0,0,0,53,28.3Z"/><path d="M104.83,17.84a1.54,1.54,0,0,0-1.35-.24,35.2,35.2,0,0,0-10,3.4l-.26.13c-.72.35-1.45.69-2.15,1.07a117,117,0,0,1-12.9,6.25,33.45,33.45,0,0,1-5.54,1.7c-1.69.35-3.8.79-5.44.08a2.82,2.82,0,0,1-1.28-1,3.93,3.93,0,0,1-.43-2.4A7.5,7.5,0,0,1,68,21.14a20.62,20.62,0,0,1,2.54-1.37,4,4,0,0,0,2-2,3.22,3.22,0,0,0-.17-2.3,3.19,3.19,0,0,0-1.6-1.78,4.11,4.11,0,0,0-3.55.58,27.87,27.87,0,0,0-6.74,6.09C61,18,63,14.48,62.55,13.4c-.49-1.26-2.67.48-4,.72a2.35,2.35,0,0,0-1.07.39,2,2,0,0,0-.53.78c-1.53,3.16-3.65,7.21-4,10.65a7.42,7.42,0,0,0,0,2.36A4.86,4.86,0,0,0,55,31.46,2.72,2.72,0,0,0,59,31.09c1.37-1.77-.11-4.55.66-6.66,1-2.67,3.15-4.72,5.39-6.48a1.86,1.86,0,0,1,.68-.39.63.63,0,0,1,.69.24.93.93,0,0,1,0,.68c-.75,3.2-2.61,6.14-2.81,9.42A5.43,5.43,0,0,0,64,30.39,2.91,2.91,0,0,0,65.52,32a5,5,0,0,0,2.63,0c2-.41,4-1,6-1.49a41.11,41.11,0,0,0,5.56-1.72c2-.84,4-1.83,6.09-2.62A30.46,30.46,0,0,1,89.41,25c4.53-1.13,9.17-1.88,13.41-3.94a5,5,0,0,0,1.88-1.4,2.09,2.09,0,0,0,.36-.85A1.09,1.09,0,0,0,104.83,17.84Z"/><path d="M37.94,3.2A11.09,11.09,0,0,0,30.72,1,15.94,15.94,0,0,0,20,4.74q-4.34,3.74-4.34,7.78a4.9,4.9,0,0,0,.86,2.78,2.37,2.37,0,0,0,1.83,1.28,6.46,6.46,0,0,0,2.26-.78c1.07-.51,1.61-1,1.61-1.35s-.25-.67-.73-.88a2.75,2.75,0,0,1-1.85-2.77q0-3.06,3.41-5.62a12.41,12.41,0,0,1,7.63-2.57A6.52,6.52,0,0,1,35.06,4,4.86,4.86,0,0,1,36.69,7.9a9.28,9.28,0,0,1-2.36,5.8c-.68.89-1,1-1,1.55,0,.25.22.54.67.85a2.21,2.21,0,0,0,1.22.48c1,0,2.1-.69,3.42-2a7.49,7.49,0,0,0,2-5.45A7.22,7.22,0,0,0,37.94,3.2ZM77.22,35.48l-.29,0c-3.62.47-7.21,1.11-10.82,1.55a45.88,45.88,0,0,1-12.44.14c-.75-.1-1.5-.25-2.25-.42-.47-.11-.93-.22-1.4-.35,0,0,0,.07,0,.1a12.15,12.15,0,0,1-.23,1.23,38.39,38.39,0,0,0,3.85.56,32.83,32.83,0,0,0,3.59.16c3.78,0,7.51-.75,11.27-1a46.36,46.36,0,0,1,6.77.06l1.37.11c1.64.15,3.27.35,4.9.56.35-1.23.7-2.34,1-3.32C80.79,35.07,79,35.26,77.22,35.48ZM26.34,28.59a14.3,14.3,0,0,0,3.84-5.9C31.94,17.54,31,11.37,34.24,7a1.07,1.07,0,0,0,.26-.52c0-.55-.69-.76-1.22-.71-3,.28-5.32,2.76-6.51,5.49-2.23,5.07-1.42,11.21-4.09,16l-4.55-1.62a10.31,10.31,0,0,0-3.32-.78,3.51,3.51,0,0,0-3,1.37,3.29,3.29,0,0,0,.55,3.95,6.27,6.27,0,0,0,3.86,1.72,12.61,12.61,0,0,0,8.44-2c2.78,1,5.56,2,8.34,2.93l2.47.84q.45-.48.9-.9l.47-.43-2.32-.83Zm-8.56,1.65c-.83-.28-1.52-1.28-1.05-2s1.63-.55,2.47-.26l2.42.85A3.74,3.74,0,0,1,17.78,30.24Z"/><path d="M50,36.44s0,.07,0,.1a12.15,12.15,0,0,1-.23,1.23h0c-1.1-.21-2.19-.46-3.28-.74-1.32-.33-2.63-.71-4-1.1h0l-2-.62q-2.53-.8-5-1.64.45-.48.9-.9l.47-.43.31.11c2.28.81,4.55,1.59,6.85,2.3,1.06.33,2.12.65,3.19,1S49.08,36.21,50,36.44Z"/><path d="M105.71,30.76a2.7,2.7,0,0,1-.61.78,26.33,26.33,0,0,1-3,2.48c-.32.23-.48.43-.17.73s1,.63,1.47,1a.68.68,0,0,1,.25.31c.2.71-1,1.42-1.49,1.72a8.69,8.69,0,0,1-2.38,1A23.44,23.44,0,0,1,94,39.3,62.34,62.34,0,0,1,87.74,39L86,38.76l-1.74-.22-2.73-.34c.35-1.23.7-2.34,1-3.32,1-.1,2.05-.21,3.07-.33l1.68-.2c.65-.09,1.29-.17,1.93-.27,2.09-.31,4.14-.74,6.19-1.23,1-.24,1.92-.7,2.88-1s2-.63,3-.91a19.58,19.58,0,0,1,3.9-.86.59.59,0,0,1,.47.11A.53.53,0,0,1,105.71,30.76Z"/><path d="M52.92,25.94a7.42,7.42,0,0,0,0,2.36c.48-.42,1-.89,1.49-1.39V24.44C53.9,25,53.38,25.5,52.92,25.94Zm-4.5-12.5c-2.56,0-4.9,1.23-7,3.69a12.3,12.3,0,0,0-3.16,8.23,7.6,7.6,0,0,0,.6,3.11,5.24,5.24,0,0,0,1,1.54,15.67,15.67,0,0,1,4.44-2.14c.27-.07.55-.14.83-.19a4.28,4.28,0,0,1-1.17-1.56,7.72,7.72,0,0,1-.55-1.72q9.45-2.77,9.45-7.22a3.4,3.4,0,0,0-1.2-2.71A4.73,4.73,0,0,0,48.42,13.44Zm-5.22,9.5a10.85,10.85,0,0,1,1.29-5.62c.86-1.44,1.76-2.16,2.71-2.16s1.5.69,1.5,2.06Q48.7,21.39,43.2,22.94Z"/><path d="M53,28.3c-.51.46-1,.87-1.47,1.24a20.75,20.75,0,0,1-1.87,1.3l-.07,0a9.28,9.28,0,0,1-4.79,1.27,6.24,6.24,0,0,1-4.72-1.87L39.82,30a15.67,15.67,0,0,1,4.44-2.14c.27-.07.55-.14.83-.19a4.15,4.15,0,0,0,2.77.91l.45,0A5.11,5.11,0,0,0,50.22,28l.35-.19a15.56,15.56,0,0,0,2.35-1.88A7.42,7.42,0,0,0,53,28.3Z"/><path d="M104.83,17.84a1.54,1.54,0,0,0-1.35-.24,35.2,35.2,0,0,0-10,3.4l-.26.13c-.72.35-1.45.69-2.15,1.07a117,117,0,0,1-12.9,6.25,33.45,33.45,0,0,1-5.54,1.7c-1.69.35-3.8.79-5.44.08a2.82,2.82,0,0,1-1.28-1,3.93,3.93,0,0,1-.43-2.4A7.5,7.5,0,0,1,68,21.14a20.62,20.62,0,0,1,2.54-1.37,4,4,0,0,0,2-2,3.22,3.22,0,0,0-.17-2.3,3.19,3.19,0,0,0-1.6-1.78,4.11,4.11,0,0,0-3.55.58,27.87,27.87,0,0,0-6.74,6.09C61,18,63,14.48,62.55,13.4c-.49-1.26-2.67.48-4,.72a2.35,2.35,0,0,0-1.07.39,2,2,0,0,0-.53.78c-1.53,3.16-3.65,7.21-4,10.65a7.42,7.42,0,0,0,0,2.36A4.86,4.86,0,0,0,55,31.46,2.72,2.72,0,0,0,59,31.09c1.37-1.77-.11-4.55.66-6.66,1-2.67,3.15-4.72,5.39-6.48a1.86,1.86,0,0,1,.68-.39.63.63,0,0,1,.69.24.93.93,0,0,1,0,.68c-.75,3.2-2.61,6.14-2.81,9.42A5.43,5.43,0,0,0,64,30.39,2.91,2.91,0,0,0,65.52,32a5,5,0,0,0,2.63,0c2-.41,4-1,6-1.49a41.11,41.11,0,0,0,5.56-1.72c2-.84,4-1.83,6.09-2.62A30.46,30.46,0,0,1,89.41,25c4.53-1.13,9.17-1.88,13.41-3.94a5,5,0,0,0,1.88-1.4,2.09,2.09,0,0,0,.36-.85A1.09,1.09,0,0,0,104.83,17.84Z"/><path d="M42.54,35.93h0a12.29,12.29,0,0,0-2.1,3c-1,2-1.75,5.32-2.25,10.07a44.29,44.29,0,0,1-1.45,8,16.29,16.29,0,0,1-.94,2.46,2.39,2.39,0,0,1-.12.22c-1.08,2.08-2.4,3.13-4,3.13s-2.14-1-2.14-3c0-.2.06-.84.2-1.93,0-.25.06-.48.09-.68.07-.66.11-1.06.11-1.19a1,1,0,0,0-.25-.7.83.83,0,0,0-.63-.29,4.59,4.59,0,0,0-1.83.86l-.23.15a10.5,10.5,0,0,0-2,1.61,2.33,2.33,0,0,0-.49,1.54,5.34,5.34,0,0,0,1.7,4.07,6.22,6.22,0,0,0,4.44,1.6,11.48,11.48,0,0,0,7.06-2.42A15,15,0,0,0,39.39,61a12.91,12.91,0,0,0,2-2.56,12.68,12.68,0,0,0,1-2,37.4,37.4,0,0,0,2.17-9.92,52.63,52.63,0,0,1,1.31-8.28A5.75,5.75,0,0,1,46.49,37C45.17,36.7,43.86,36.32,42.54,35.93Zm4.18-2.35A6.83,6.83,0,0,0,44,34.75c1.06.33,2.12.65,3.19,1a3.62,3.62,0,0,0,.26-1C47.56,33.72,47.08,33.58,46.72,33.58Zm0,0A6.83,6.83,0,0,0,44,34.75c1.06.33,2.12.65,3.19,1a3.62,3.62,0,0,0,.26-1C47.56,33.72,47.08,33.58,46.72,33.58Z"/><path d="M47.13,27.81a3.93,3.93,0,0,0-2-.13c-.28.05-.56.12-.83.19A15.67,15.67,0,0,0,39.82,30a26.35,26.35,0,0,0-3,2.33l-.47.43q-.45.42-.9.9c-1.62,1.7-3.12,4-2.64,6.6a4.65,4.65,0,0,0,2,3.07c.28.17.63.43.56.79a.78.78,0,0,1-.22.36,7.75,7.75,0,0,1-1.74,1.41,3.09,3.09,0,0,1-2.08.51c-1.38-.27-2.24-2-2.44-3.62-.47-3.79,1.48-7.3,3.82-9.66l.3-.3c.49-.47,1-.9,1.52-1.32.78-.62,1.6-1.19,2.41-1.74l1.91-1.3a18.62,18.62,0,0,1,2.9-1.67,10.41,10.41,0,0,1,2.16-.68A7.43,7.43,0,0,1,45.4,26a6.62,6.62,0,0,1,1.77.23,7.15,7.15,0,0,1,3,1.81,5.11,5.11,0,0,1-1.91.56A3.42,3.42,0,0,0,47.13,27.81Z"/><path d="M53.67,37.21c0,.38,0,.75,0,1.12a12.79,12.79,0,0,1-.89,4c-.77,1.89-2.13,3.58-3.88,4a2.1,2.1,0,0,1-1.29,0,1.47,1.47,0,0,1-.84-1.08,2.9,2.9,0,0,1,.69-2,16.17,16.17,0,0,0,2.35-5.48h0A12.15,12.15,0,0,0,50,36.54s0-.06,0-.1a13.58,13.58,0,0,0-.39-5.6,20.75,20.75,0,0,0,1.87-1.3l.09.13a13.52,13.52,0,0,1,2,5.87A15.59,15.59,0,0,1,53.67,37.21Z"/><path d="M73.86,53.75A45.94,45.94,0,0,1,68.94,58a5.16,5.16,0,0,1-2.84,1q-3.39,0-3.2-6a22.29,22.29,0,0,1-4,4.54A6,6,0,0,1,55.19,59,3.92,3.92,0,0,1,52,57.22a7.07,7.07,0,0,1-1.32-4.35,11.61,11.61,0,0,1,1.78-6.14A14.57,14.57,0,0,1,57,42a9.35,9.35,0,0,1,4.9-1.8c1.79,0,2.06,1.89,3.76,2.47,1.19.4,4.39-2.43,4.39-2.43s1-.24,1.2,0c1,1.32-1.89,6.3-1.89,6.3a26.83,26.83,0,0,0-1.46,6.51c0,1.23.43,1.84,1.31,1.84A2.9,2.9,0,0,0,71,54c.67-.59,1.62-1.5,2.84-2.72ZM58.13,54.94q2.15,0,4-3.67a14.77,14.77,0,0,0,1.9-6.75,2.92,2.92,0,0,0-.54-1.88A1.73,1.73,0,0,0,62.1,42Q60,42,58,45.61a14.65,14.65,0,0,0-1.92,6.73,3,3,0,0,0,.57,1.88A1.77,1.77,0,0,0,58.13,54.94Z"/><path d="M88,51.32a28.41,28.41,0,0,1-4,3.44,4.62,4.62,0,0,1-2.47.84,2.08,2.08,0,0,1-1.83-1.09,5.63,5.63,0,0,1-.68-3c0-.56,0-1.58.17-3.07a38.55,38.55,0,0,0,6.32-8.77c.15-.31.3-.62.43-.94l-1.74-.22s0,0,0,0a26,26,0,0,1-4.42,6.79c.56-2.73,1.12-5.12,1.7-7.15.35-1.23.7-2.34,1-3.32.08-.21.16-.41.23-.61q1.52-3.95,2.31-4c.25,0,.45.16.61.48A3.05,3.05,0,0,1,86,32.08a10.76,10.76,0,0,1-.31,2.47l1.68-.2a19.25,19.25,0,0,0,.26-3.13,6.39,6.39,0,0,0-.39-2.46c-.27-.61-.61-.92-1-.92a1.29,1.29,0,0,0-.39.09S81.42,29,80.32,30a11.45,11.45,0,0,0-3.1,5.53c-.22.7-.41,1.43-.59,2.16-.34,1.32-.66,2.66-1.06,4a40.15,40.15,0,0,0-1.93,9.91c0,.31,0,.62,0,.92a9.66,9.66,0,0,0,.1,1.46h0A6.52,6.52,0,0,0,75,57.21,4.48,4.48,0,0,0,78.73,59a8.4,8.4,0,0,0,4.2-1.28,29.06,29.06,0,0,0,4.92-3.78l.21-.19V51.28Z"/><path d="M119.7,53.75a37.47,37.47,0,0,1-4.59,3.94A6.65,6.65,0,0,1,111.39,59a2.81,2.81,0,0,1-2.25-1,3.94,3.94,0,0,1-.82-2.63,19.69,19.69,0,0,1,1.16-5.89,22.75,22.75,0,0,0,1.16-4.34.62.62,0,0,0-.71-.69,1.23,1.23,0,0,0-.52.15,7.11,7.11,0,0,0-.73.43c-.27.2-.56.45-.88.73s-.64.62-1,1-.74.78-1.11,1.23a4.84,4.84,0,0,0-1.12,1.87s-1.28,2.11-1.67,2.8c-.51.92-2,3.24-2,3.24S97.83,59,97.12,59c-2.37,0,2.09-8.85,2.09-8.85.16-.65.34-1.59.56-2.84s.32-2,.32-2.23c0-.49-.17-.74-.49-.74a1,1,0,0,0-.43.15,5.62,5.62,0,0,0-.74.46c-.31.23-.65.5-1,.81s-.81.74-1.25,1.18-1,1-1.46,1.57a5.31,5.31,0,0,0-1.29,2.71A32.77,32.77,0,0,0,93,54.53c-.1,1-.16,2.06-.18,3.26L88,58.93c-.11-1.64-.17-3-.17-4.12A25.36,25.36,0,0,1,88.66,48a43.92,43.92,0,0,1,2.66-6.8s4.36-2,5.2-1c1.61,1.93-1.65,4.59-2.17,6.76q5.79-6.72,8.85-6.72a2.18,2.18,0,0,1,1.82.91,3.89,3.89,0,0,1,.7,2.4A24.62,24.62,0,0,1,105.5,46a47.77,47.77,0,0,1,5.22-4.74,5.22,5.22,0,0,1,2.91-1.1,2.35,2.35,0,0,1,1.93.94,3.77,3.77,0,0,1,.75,2.41,18.89,18.89,0,0,1-1.26,5.91,19.36,19.36,0,0,0-1.27,4.77c0,.8.33,2.1.92,2.1.37,0,2.55-1.34,2.25-2.17C115.86,51.16,89.66,63,63,64,15.8,65.9-7.07,22.53,3.57,26c2.13.69,1-3.76,2.71-4.19C13,20.06,4.28,59,60.1,60.92c15.36.54,40.76-6.93,51.85-8.59C121.23,51,119.7,53.75,119.7,53.75Z"/><path d="M42.54,35.93h0a12.29,12.29,0,0,0-2.1,3c-1,2-1.75,5.32-2.25,10.07a44.29,44.29,0,0,1-1.45,8,16.29,16.29,0,0,1-.94,2.46,2.39,2.39,0,0,1-.12.22c-1.08,2.08-2.4,3.13-4,3.13s-2.14-1-2.14-3c0-.2.06-.84.2-1.93,0-.25.06-.48.09-.68.07-.66.11-1.06.11-1.19a1,1,0,0,0-.25-.7.83.83,0,0,0-.63-.29,4.59,4.59,0,0,0-1.83.86l-.23.15a10.5,10.5,0,0,0-2,1.61,2.33,2.33,0,0,0-.49,1.54,5.34,5.34,0,0,0,1.7,4.07,6.22,6.22,0,0,0,4.44,1.6,11.48,11.48,0,0,0,7.06-2.42A15,15,0,0,0,39.39,61a12.91,12.91,0,0,0,2-2.56,12.68,12.68,0,0,0,1-2,37.4,37.4,0,0,0,2.17-9.92,52.63,52.63,0,0,1,1.31-8.28A5.75,5.75,0,0,1,46.49,37C45.17,36.7,43.86,36.32,42.54,35.93Zm4.18-2.35A6.83,6.83,0,0,0,44,34.75c1.06.33,2.12.65,3.19,1a3.62,3.62,0,0,0,.26-1C47.56,33.72,47.08,33.58,46.72,33.58Zm0,0A6.83,6.83,0,0,0,44,34.75c1.06.33,2.12.65,3.19,1a3.62,3.62,0,0,0,.26-1C47.56,33.72,47.08,33.58,46.72,33.58Z"/><path d="M47.13,27.81a3.93,3.93,0,0,0-2-.13c-.28.05-.56.12-.83.19A15.67,15.67,0,0,0,39.82,30a26.35,26.35,0,0,0-3,2.33l-.47.43q-.45.42-.9.9c-1.62,1.7-3.12,4-2.64,6.6a4.65,4.65,0,0,0,2,3.07c.28.17.63.43.56.79a.78.78,0,0,1-.22.36,7.75,7.75,0,0,1-1.74,1.41,3.09,3.09,0,0,1-2.08.51c-1.38-.27-2.24-2-2.44-3.62-.47-3.79,1.48-7.3,3.82-9.66l.3-.3c.49-.47,1-.9,1.52-1.32.78-.62,1.6-1.19,2.41-1.74l1.91-1.3a18.62,18.62,0,0,1,2.9-1.67,10.41,10.41,0,0,1,2.16-.68A7.43,7.43,0,0,1,45.4,26a6.62,6.62,0,0,1,1.77.23,7.15,7.15,0,0,1,3,1.81,5.11,5.11,0,0,1-1.91.56A3.42,3.42,0,0,0,47.13,27.81Z"/><path d="M53.67,37.21c0,.38,0,.75,0,1.12a12.79,12.79,0,0,1-.89,4c-.77,1.89-2.13,3.58-3.88,4a2.1,2.1,0,0,1-1.29,0,1.47,1.47,0,0,1-.84-1.08,2.9,2.9,0,0,1,.69-2,16.17,16.17,0,0,0,2.35-5.48h0A12.15,12.15,0,0,0,50,36.54s0-.06,0-.1a13.58,13.58,0,0,0-.39-5.6,20.75,20.75,0,0,0,1.87-1.3l.09.13a13.52,13.52,0,0,1,2,5.87A15.59,15.59,0,0,1,53.67,37.21Z"/><path d="M73.86,53.75A45.94,45.94,0,0,1,68.94,58a5.16,5.16,0,0,1-2.84,1q-3.39,0-3.2-6a22.29,22.29,0,0,1-4,4.54A6,6,0,0,1,55.19,59,3.92,3.92,0,0,1,52,57.22a7.07,7.07,0,0,1-1.32-4.35,11.61,11.61,0,0,1,1.78-6.14A14.57,14.57,0,0,1,57,42a9.35,9.35,0,0,1,4.9-1.8c1.79,0,2.06,1.89,3.76,2.47,1.19.4,4.39-2.43,4.39-2.43s1-.24,1.2,0c1,1.32-1.89,6.3-1.89,6.3a26.83,26.83,0,0,0-1.46,6.51c0,1.23.43,1.84,1.31,1.84A2.9,2.9,0,0,0,71,54c.67-.59,1.62-1.5,2.84-2.72ZM58.13,54.94q2.15,0,4-3.67a14.77,14.77,0,0,0,1.9-6.75,2.92,2.92,0,0,0-.54-1.88A1.73,1.73,0,0,0,62.1,42Q60,42,58,45.61a14.65,14.65,0,0,0-1.92,6.73,3,3,0,0,0,.57,1.88A1.77,1.77,0,0,0,58.13,54.94Z"/><path d="M88,51.32a28.41,28.41,0,0,1-4,3.44,4.62,4.62,0,0,1-2.47.84,2.08,2.08,0,0,1-1.83-1.09,5.63,5.63,0,0,1-.68-3c0-.56,0-1.58.17-3.07a38.55,38.55,0,0,0,6.32-8.77c.15-.31.3-.62.43-.94l-1.74-.22s0,0,0,0a26,26,0,0,1-4.42,6.79c.56-2.73,1.12-5.12,1.7-7.15.35-1.23.7-2.34,1-3.32.08-.21.16-.41.23-.61q1.52-3.95,2.31-4c.25,0,.45.16.61.48A3.05,3.05,0,0,1,86,32.08a10.76,10.76,0,0,1-.31,2.47l1.68-.2a19.25,19.25,0,0,0,.26-3.13,6.39,6.39,0,0,0-.39-2.46c-.27-.61-.61-.92-1-.92a1.29,1.29,0,0,0-.39.09S81.42,29,80.32,30a11.45,11.45,0,0,0-3.1,5.53c-.22.7-.41,1.43-.59,2.16-.34,1.32-.66,2.66-1.06,4a40.15,40.15,0,0,0-1.93,9.91c0,.31,0,.62,0,.92a9.66,9.66,0,0,0,.1,1.46h0A6.52,6.52,0,0,0,75,57.21,4.48,4.48,0,0,0,78.73,59a8.4,8.4,0,0,0,4.2-1.28,29.06,29.06,0,0,0,4.92-3.78l.21-.19V51.28Z"/><path d="M119.7,53.75a37.47,37.47,0,0,1-4.59,3.94A6.65,6.65,0,0,1,111.39,59a2.81,2.81,0,0,1-2.25-1,3.94,3.94,0,0,1-.82-2.63,19.69,19.69,0,0,1,1.16-5.89,22.75,22.75,0,0,0,1.16-4.34.62.62,0,0,0-.71-.69,1.23,1.23,0,0,0-.52.15,7.11,7.11,0,0,0-.73.43c-.27.2-.56.45-.88.73s-.64.62-1,1-.74.78-1.11,1.23a4.84,4.84,0,0,0-1.12,1.87s-1.28,2.11-1.67,2.8c-.51.92-2,3.24-2,3.24S97.83,59,97.12,59c-2.37,0,2.09-8.85,2.09-8.85.16-.65.34-1.59.56-2.84s.32-2,.32-2.23c0-.49-.17-.74-.49-.74a1,1,0,0,0-.43.15,5.62,5.62,0,0,0-.74.46c-.31.23-.65.5-1,.81s-.81.74-1.25,1.18-1,1-1.46,1.57a5.31,5.31,0,0,0-1.29,2.71A32.77,32.77,0,0,0,93,54.53c-.1,1-.16,2.06-.18,3.26L88,58.93c-.11-1.64-.17-3-.17-4.12A25.36,25.36,0,0,1,88.66,48a43.92,43.92,0,0,1,2.66-6.8s4.36-2,5.2-1c1.61,1.93-1.65,4.59-2.17,6.76q5.79-6.72,8.85-6.72a2.18,2.18,0,0,1,1.82.91,3.89,3.89,0,0,1,.7,2.4A24.62,24.62,0,0,1,105.5,46a47.77,47.77,0,0,1,5.22-4.74,5.22,5.22,0,0,1,2.91-1.1,2.35,2.35,0,0,1,1.93.94,3.77,3.77,0,0,1,.75,2.41,18.89,18.89,0,0,1-1.26,5.91,19.36,19.36,0,0,0-1.27,4.77c0,.8.33,2.1.92,2.1.37,0,2.55-1.34,2.25-2.17C115.86,51.16,89.66,63,63,64,15.8,65.9-7.07,22.53,3.57,26c2.13.69,1-3.76,2.71-4.19C13,20.06,4.28,59,60.1,60.92c15.36.54,40.76-6.93,51.85-8.59C121.23,51,119.7,53.75,119.7,53.75Z"/><path d="M121.29,14.58c.76,1.57-5.31,4.52-6.07,3s-7.6,2.34-7.6.69,5.8-2.38,7.12-3.38C118.69,11.86,120.57,13.1,121.29,14.58Z"/><path d="M120.78,25.24c.26,1.64-3.37,1.39-4.56,2.82s.87,2.46-.7,3.08c-.68.28-7.31.22-7.34-.52s4.82-4.38,5.56-4.4S120.67,24.51,120.78,25.24Z"/><path d="M69.35,7.5" style="fill:none;stroke:#000;stroke-miterlimit:10;stroke-width:0.25px"/></g><path d="M36.94,2.2A11.09,11.09,0,0,0,29.72,0,15.94,15.94,0,0,0,19,3.74q-4.34,3.74-4.34,7.78a4.9,4.9,0,0,0,.86,2.78,2.37,2.37,0,0,0,1.83,1.28,6.46,6.46,0,0,0,2.26-.78c1.07-.51,1.61-1,1.61-1.35s-.25-.67-.73-.88A2.75,2.75,0,0,1,18.59,9.8q0-3.06,3.41-5.62a12.41,12.41,0,0,1,7.63-2.57A6.52,6.52,0,0,1,34.06,3,4.86,4.86,0,0,1,35.69,6.9a9.28,9.28,0,0,1-2.36,5.8c-.68.89-1,1-1,1.55,0,.25.22.54.67.85a2.21,2.21,0,0,0,1.22.48c1,0,2.1-.69,3.42-2.05a7.49,7.49,0,0,0,2-5.45A7.22,7.22,0,0,0,36.94,2.2ZM76.22,34.48l-.29,0c-3.62.47-7.21,1.11-10.82,1.55a45.88,45.88,0,0,1-12.44.14c-.75-.1-1.5-.25-2.25-.42-.47-.11-.93-.22-1.4-.35,0,0,0,.07,0,.1a12.15,12.15,0,0,1-.23,1.23,38.39,38.39,0,0,0,3.85.56,32.83,32.83,0,0,0,3.59.16c3.78,0,7.51-.75,11.27-1a46.36,46.36,0,0,1,6.77.06l1.37.11c1.64.15,3.27.35,4.9.56.35-1.23.7-2.34,1-3.32C79.79,34.07,78,34.26,76.22,34.48ZM25.34,27.59a14.3,14.3,0,0,0,3.84-5.9C30.94,16.54,30,10.37,33.24,6a1.07,1.07,0,0,0,.26-.52c0-.55-.69-.76-1.22-.71-3,.28-5.32,2.76-6.51,5.49-2.23,5.07-1.42,11.21-4.09,16l-4.55-1.62a10.31,10.31,0,0,0-3.32-.78,3.51,3.51,0,0,0-3,1.37,3.29,3.29,0,0,0,.55,3.95,6.27,6.27,0,0,0,3.86,1.72,12.61,12.61,0,0,0,8.44-2c2.78,1,5.56,2,8.34,2.93l2.47.84q.45-.48.9-.9l.47-.43-2.32-.83Zm-8.56,1.65c-.83-.28-1.52-1.28-1.05-2s1.63-.55,2.47-.26l2.42.85A3.74,3.74,0,0,1,16.78,29.24Z"/><path d="M49,35.44s0,.07,0,.1a12.15,12.15,0,0,1-.23,1.23h0c-1.1-.21-2.19-.46-3.28-.74-1.32-.33-2.63-.71-4-1.1h0l-2-.62q-2.53-.8-5-1.64.45-.48.9-.9l.47-.43.31.11c2.28.81,4.55,1.59,6.85,2.3,1.06.33,2.12.65,3.19,1S48.08,35.21,49,35.44Z"/><path d="M104.71,29.76a2.7,2.7,0,0,1-.61.78,26.33,26.33,0,0,1-3,2.48c-.32.23-.48.43-.17.73s1,.63,1.47,1a.68.68,0,0,1,.25.31c.2.71-1,1.42-1.49,1.72a8.69,8.69,0,0,1-2.38,1A23.44,23.44,0,0,1,93,38.3,62.34,62.34,0,0,1,86.74,38L85,37.76l-1.74-.22-2.73-.34c.35-1.23.7-2.34,1-3.32,1-.1,2.05-.21,3.07-.33l1.68-.2c.65-.09,1.29-.17,1.93-.27,2.09-.31,4.14-.74,6.19-1.23,1-.24,1.92-.7,2.88-1s2-.63,3-.91a19.58,19.58,0,0,1,3.9-.86.59.59,0,0,1,.47.11A.53.53,0,0,1,104.71,29.76Z"/><path d="M51.92,24.94a7.42,7.42,0,0,0,0,2.36c.48-.42,1-.89,1.49-1.39V23.44C52.9,24,52.38,24.5,51.92,24.94Zm-4.5-12.5c-2.56,0-4.9,1.23-7,3.69a12.3,12.3,0,0,0-3.16,8.23,7.6,7.6,0,0,0,.6,3.11,5.24,5.24,0,0,0,1,1.54,15.67,15.67,0,0,1,4.44-2.14c.27-.07.55-.14.83-.19a4.28,4.28,0,0,1-1.17-1.56,7.72,7.72,0,0,1-.55-1.72q9.45-2.77,9.45-7.22a3.4,3.4,0,0,0-1.2-2.71A4.73,4.73,0,0,0,47.42,12.44Zm-5.22,9.5a10.85,10.85,0,0,1,1.29-5.62c.86-1.44,1.76-2.16,2.71-2.16s1.5.69,1.5,2.06Q47.7,20.39,42.2,21.94Z"/><path d="M52,27.3c-.51.46-1,.87-1.47,1.24a20.75,20.75,0,0,1-1.87,1.3l-.07,0a9.28,9.28,0,0,1-4.79,1.27,6.24,6.24,0,0,1-4.72-1.87L38.82,29a15.67,15.67,0,0,1,4.44-2.14c.27-.07.55-.14.83-.19a4.15,4.15,0,0,0,2.77.91l.45,0A5.11,5.11,0,0,0,49.22,27l.35-.19a15.56,15.56,0,0,0,2.35-1.88A7.42,7.42,0,0,0,52,27.3Z"/><path d="M103.83,16.84a1.54,1.54,0,0,0-1.35-.24,35.2,35.2,0,0,0-10,3.4l-.26.13c-.72.35-1.45.69-2.15,1.07a117,117,0,0,1-12.9,6.25,33.45,33.45,0,0,1-5.54,1.7c-1.69.35-3.8.79-5.44.08a2.82,2.82,0,0,1-1.28-1,3.93,3.93,0,0,1-.43-2.4A7.5,7.5,0,0,1,67,20.14a20.62,20.62,0,0,1,2.54-1.37,4,4,0,0,0,2-2,3.22,3.22,0,0,0-.17-2.3,3.19,3.19,0,0,0-1.6-1.78,4.11,4.11,0,0,0-3.55.58,27.87,27.87,0,0,0-6.74,6.09C60,17,62,13.48,61.55,12.4c-.49-1.26-2.67.48-4,.72a2.35,2.35,0,0,0-1.07.39,2,2,0,0,0-.53.78c-1.53,3.16-3.65,7.21-4,10.65a7.42,7.42,0,0,0,0,2.36A4.86,4.86,0,0,0,54,30.46,2.72,2.72,0,0,0,58,30.09c1.37-1.77-.11-4.55.66-6.66,1-2.67,3.15-4.72,5.39-6.48a1.86,1.86,0,0,1,.68-.39.63.63,0,0,1,.69.24.93.93,0,0,1,0,.68c-.75,3.2-2.61,6.14-2.81,9.42A5.43,5.43,0,0,0,63,29.39,2.91,2.91,0,0,0,64.52,31a5,5,0,0,0,2.63,0c2-.41,4-1,6-1.49a41.11,41.11,0,0,0,5.56-1.72c2-.84,4-1.83,6.09-2.62A30.46,30.46,0,0,1,88.41,24c4.53-1.13,9.17-1.88,13.41-3.94a5,5,0,0,0,1.88-1.4,2.09,2.09,0,0,0,.36-.85A1.09,1.09,0,0,0,103.83,16.84Z"/><path d="M36.94,2.2A11.09,11.09,0,0,0,29.72,0,15.94,15.94,0,0,0,19,3.74q-4.34,3.74-4.34,7.78a4.9,4.9,0,0,0,.86,2.78,2.37,2.37,0,0,0,1.83,1.28,6.46,6.46,0,0,0,2.26-.78c1.07-.51,1.61-1,1.61-1.35s-.25-.67-.73-.88A2.75,2.75,0,0,1,18.59,9.8q0-3.06,3.41-5.62a12.41,12.41,0,0,1,7.63-2.57A6.52,6.52,0,0,1,34.06,3,4.86,4.86,0,0,1,35.69,6.9a9.28,9.28,0,0,1-2.36,5.8c-.68.89-1,1-1,1.55,0,.25.22.54.67.85a2.21,2.21,0,0,0,1.22.48c1,0,2.1-.69,3.42-2.05a7.49,7.49,0,0,0,2-5.45A7.22,7.22,0,0,0,36.94,2.2ZM76.22,34.48l-.29,0c-3.62.47-7.21,1.11-10.82,1.55a45.88,45.88,0,0,1-12.44.14c-.75-.1-1.5-.25-2.25-.42-.47-.11-.93-.22-1.4-.35,0,0,0,.07,0,.1a12.15,12.15,0,0,1-.23,1.23,38.39,38.39,0,0,0,3.85.56,32.83,32.83,0,0,0,3.59.16c3.78,0,7.51-.75,11.27-1a46.36,46.36,0,0,1,6.77.06l1.37.11c1.64.15,3.27.35,4.9.56.35-1.23.7-2.34,1-3.32C79.79,34.07,78,34.26,76.22,34.48ZM25.34,27.59a14.3,14.3,0,0,0,3.84-5.9C30.94,16.54,30,10.37,33.24,6a1.07,1.07,0,0,0,.26-.52c0-.55-.69-.76-1.22-.71-3,.28-5.32,2.76-6.51,5.49-2.23,5.07-1.42,11.21-4.09,16l-4.55-1.62a10.31,10.31,0,0,0-3.32-.78,3.51,3.51,0,0,0-3,1.37,3.29,3.29,0,0,0,.55,3.95,6.27,6.27,0,0,0,3.86,1.72,12.61,12.61,0,0,0,8.44-2c2.78,1,5.56,2,8.34,2.93l2.47.84q.45-.48.9-.9l.47-.43-2.32-.83Zm-8.56,1.65c-.83-.28-1.52-1.28-1.05-2s1.63-.55,2.47-.26l2.42.85A3.74,3.74,0,0,1,16.78,29.24Z" style="fill:blue"/><path d="M49,35.44s0,.07,0,.1a12.15,12.15,0,0,1-.23,1.23h0c-1.1-.21-2.19-.46-3.28-.74-1.32-.33-2.63-.71-4-1.1h0l-2-.62q-2.53-.8-5-1.64.45-.48.9-.9l.47-.43.31.11c2.28.81,4.55,1.59,6.85,2.3,1.06.33,2.12.65,3.19,1S48.08,35.21,49,35.44Z" style="fill:blue"/><path d="M104.71,29.76a2.7,2.7,0,0,1-.61.78,26.33,26.33,0,0,1-3,2.48c-.32.23-.48.43-.17.73s1,.63,1.47,1a.68.68,0,0,1,.25.31c.2.71-1,1.42-1.49,1.72a8.69,8.69,0,0,1-2.38,1A23.44,23.44,0,0,1,93,38.3,62.34,62.34,0,0,1,86.74,38L85,37.76l-1.74-.22-2.73-.34c.35-1.23.7-2.34,1-3.32,1-.1,2.05-.21,3.07-.33l1.68-.2c.65-.09,1.29-.17,1.93-.27,2.09-.31,4.14-.74,6.19-1.23,1-.24,1.92-.7,2.88-1s2-.63,3-.91a19.58,19.58,0,0,1,3.9-.86.59.59,0,0,1,.47.11A.53.53,0,0,1,104.71,29.76Z" style="fill:blue"/><path d="M51.92,24.94a7.42,7.42,0,0,0,0,2.36c.48-.42,1-.89,1.49-1.39V23.44C52.9,24,52.38,24.5,51.92,24.94Zm-4.5-12.5c-2.56,0-4.9,1.23-7,3.69a12.3,12.3,0,0,0-3.16,8.23,7.6,7.6,0,0,0,.6,3.11,5.24,5.24,0,0,0,1,1.54,15.67,15.67,0,0,1,4.44-2.14c.27-.07.55-.14.83-.19a4.28,4.28,0,0,1-1.17-1.56,7.72,7.72,0,0,1-.55-1.72q9.45-2.77,9.45-7.22a3.4,3.4,0,0,0-1.2-2.71A4.73,4.73,0,0,0,47.42,12.44Zm-5.22,9.5a10.85,10.85,0,0,1,1.29-5.62c.86-1.44,1.76-2.16,2.71-2.16s1.5.69,1.5,2.06Q47.7,20.39,42.2,21.94Z" style="fill:blue"/><path d="M52,27.3c-.51.46-1,.87-1.47,1.24a20.75,20.75,0,0,1-1.87,1.3l-.07,0a9.28,9.28,0,0,1-4.79,1.27,6.24,6.24,0,0,1-4.72-1.87L38.82,29a15.67,15.67,0,0,1,4.44-2.14c.27-.07.55-.14.83-.19a4.15,4.15,0,0,0,2.77.91l.45,0A5.11,5.11,0,0,0,49.22,27l.35-.19a15.56,15.56,0,0,0,2.35-1.88A7.42,7.42,0,0,0,52,27.3Z" style="fill:blue"/><path d="M103.83,16.84a1.54,1.54,0,0,0-1.35-.24,35.2,35.2,0,0,0-10,3.4l-.26.13c-.72.35-1.45.69-2.15,1.07a117,117,0,0,1-12.9,6.25,33.45,33.45,0,0,1-5.54,1.7c-1.69.35-3.8.79-5.44.08a2.82,2.82,0,0,1-1.28-1,3.93,3.93,0,0,1-.43-2.4A7.5,7.5,0,0,1,67,20.14a20.62,20.62,0,0,1,2.54-1.37,4,4,0,0,0,2-2,3.22,3.22,0,0,0-.17-2.3,3.19,3.19,0,0,0-1.6-1.78,4.11,4.11,0,0,0-3.55.58,27.87,27.87,0,0,0-6.74,6.09C60,17,62,13.48,61.55,12.4c-.49-1.26-2.67.48-4,.72a2.35,2.35,0,0,0-1.07.39,2,2,0,0,0-.53.78c-1.53,3.16-3.65,7.21-4,10.65a7.42,7.42,0,0,0,0,2.36A4.86,4.86,0,0,0,54,30.46,2.72,2.72,0,0,0,58,30.09c1.37-1.77-.11-4.55.66-6.66,1-2.67,3.15-4.72,5.39-6.48a1.86,1.86,0,0,1,.68-.39.63.63,0,0,1,.69.24.93.93,0,0,1,0,.68c-.75,3.2-2.61,6.14-2.81,9.42A5.43,5.43,0,0,0,63,29.39,2.91,2.91,0,0,0,64.52,31a5,5,0,0,0,2.63,0c2-.41,4-1,6-1.49a41.11,41.11,0,0,0,5.56-1.72c2-.84,4-1.83,6.09-2.62A30.46,30.46,0,0,1,88.41,24c4.53-1.13,9.17-1.88,13.41-3.94a5,5,0,0,0,1.88-1.4,2.09,2.09,0,0,0,.36-.85A1.09,1.09,0,0,0,103.83,16.84Z" style="fill:blue"/><path d="M41.54,34.93h0a12.29,12.29,0,0,0-2.1,3c-1,2-1.75,5.32-2.25,10.07a44.29,44.29,0,0,1-1.45,8,16.29,16.29,0,0,1-.94,2.46,2.39,2.39,0,0,1-.12.22c-1.08,2.08-2.4,3.13-4,3.13s-2.14-1-2.14-3c0-.2.06-.84.2-1.93,0-.25.06-.48.09-.68.07-.66.11-1.06.11-1.19a1,1,0,0,0-.25-.7.83.83,0,0,0-.63-.29,4.59,4.59,0,0,0-1.83.86l-.23.15a10.5,10.5,0,0,0-2,1.61,2.33,2.33,0,0,0-.49,1.54,5.34,5.34,0,0,0,1.7,4.07,6.22,6.22,0,0,0,4.44,1.6,11.48,11.48,0,0,0,7.06-2.42A15,15,0,0,0,38.39,60a12.91,12.91,0,0,0,2-2.56,12.68,12.68,0,0,0,1-2,37.4,37.4,0,0,0,2.17-9.92,52.63,52.63,0,0,1,1.31-8.28A5.75,5.75,0,0,1,45.49,36C44.17,35.7,42.86,35.32,41.54,34.93Zm4.18-2.35A6.83,6.83,0,0,0,43,33.75c1.06.33,2.12.65,3.19,1a3.62,3.62,0,0,0,.26-1C46.56,32.72,46.08,32.58,45.72,32.58Zm0,0A6.83,6.83,0,0,0,43,33.75c1.06.33,2.12.65,3.19,1a3.62,3.62,0,0,0,.26-1C46.56,32.72,46.08,32.58,45.72,32.58Z"/><path d="M46.13,26.81a3.93,3.93,0,0,0-2-.13c-.28.05-.56.12-.83.19A15.67,15.67,0,0,0,38.82,29a26.35,26.35,0,0,0-3,2.33l-.47.43q-.45.42-.9.9c-1.62,1.7-3.12,4-2.64,6.6a4.65,4.65,0,0,0,2,3.07c.28.17.63.43.56.79a.78.78,0,0,1-.22.36,7.75,7.75,0,0,1-1.74,1.41,3.09,3.09,0,0,1-2.08.51c-1.38-.27-2.24-2-2.44-3.62-.47-3.79,1.48-7.3,3.82-9.66l.3-.3c.49-.47,1-.9,1.52-1.32.78-.62,1.6-1.19,2.41-1.74l1.91-1.3a18.62,18.62,0,0,1,2.9-1.67,10.41,10.41,0,0,1,2.16-.68A7.43,7.43,0,0,1,44.4,25a6.62,6.62,0,0,1,1.77.23,7.15,7.15,0,0,1,3,1.81,5.11,5.11,0,0,1-1.91.56A3.42,3.42,0,0,0,46.13,26.81Z" style="fill:url(#White_Black)"/><path d="M52.67,36.21c0,.38,0,.75,0,1.12a12.79,12.79,0,0,1-.89,4c-.77,1.89-2.13,3.58-3.88,4a2.1,2.1,0,0,1-1.29,0,1.47,1.47,0,0,1-.84-1.08,2.9,2.9,0,0,1,.69-2,16.17,16.17,0,0,0,2.35-5.48h0A12.15,12.15,0,0,0,49,35.54s0-.06,0-.1a13.58,13.58,0,0,0-.39-5.6,20.75,20.75,0,0,0,1.87-1.3l.09.13a13.52,13.52,0,0,1,2,5.87A15.59,15.59,0,0,1,52.67,36.21Z" style="fill:url(#White_Black-2)"/><path d="M72.86,52.75A45.94,45.94,0,0,1,67.94,57a5.16,5.16,0,0,1-2.84,1q-3.39,0-3.2-6a22.29,22.29,0,0,1-4,4.54A6,6,0,0,1,54.19,58,3.92,3.92,0,0,1,51,56.22a7.07,7.07,0,0,1-1.32-4.35,11.61,11.61,0,0,1,1.78-6.14A14.57,14.57,0,0,1,56,41a9.35,9.35,0,0,1,4.9-1.8c1.79,0,2.06,1.89,3.76,2.47,1.19.4,4.39-2.43,4.39-2.43s1-.24,1.2,0c1,1.32-1.89,6.3-1.89,6.3a26.83,26.83,0,0,0-1.46,6.51c0,1.23.43,1.84,1.31,1.84A2.9,2.9,0,0,0,70,53c.67-.59,1.62-1.5,2.84-2.72ZM57.13,53.94q2.15,0,4-3.67a14.77,14.77,0,0,0,1.9-6.75,2.92,2.92,0,0,0-.54-1.88A1.73,1.73,0,0,0,61.1,41Q59,41,57,44.61a14.65,14.65,0,0,0-1.92,6.73,3,3,0,0,0,.57,1.88A1.77,1.77,0,0,0,57.13,53.94Z"/><path d="M87,50.32a28.41,28.41,0,0,1-4,3.44,4.62,4.62,0,0,1-2.47.84,2.08,2.08,0,0,1-1.83-1.09,5.63,5.63,0,0,1-.68-3c0-.56,0-1.58.17-3.07a38.55,38.55,0,0,0,6.32-8.77c.15-.31.3-.62.43-.94l-1.74-.22s0,0,0,0a26,26,0,0,1-4.42,6.79c.56-2.73,1.12-5.12,1.7-7.15.35-1.23.7-2.34,1-3.32.08-.21.16-.41.23-.61q1.52-3.95,2.31-4c.25,0,.45.16.61.48A3.05,3.05,0,0,1,85,31.08a10.76,10.76,0,0,1-.31,2.47l1.68-.2a19.25,19.25,0,0,0,.26-3.13,6.39,6.39,0,0,0-.39-2.46c-.27-.61-.61-.92-1-.92a1.29,1.29,0,0,0-.39.09S80.42,28,79.32,29a11.45,11.45,0,0,0-3.1,5.53c-.22.7-.41,1.43-.59,2.16-.34,1.32-.66,2.66-1.06,4a40.15,40.15,0,0,0-1.93,9.91c0,.31,0,.62,0,.92a9.66,9.66,0,0,0,.1,1.46h0A6.52,6.52,0,0,0,74,56.21,4.48,4.48,0,0,0,77.73,58a8.4,8.4,0,0,0,4.2-1.28,29.06,29.06,0,0,0,4.92-3.78l.21-.19V50.28Z"/><path d="M118.7,52.75a37.47,37.47,0,0,1-4.59,3.94A6.65,6.65,0,0,1,110.39,58a2.81,2.81,0,0,1-2.25-1,3.94,3.94,0,0,1-.82-2.63,19.69,19.69,0,0,1,1.16-5.89,22.75,22.75,0,0,0,1.16-4.34.62.62,0,0,0-.71-.69,1.23,1.23,0,0,0-.52.15,7.11,7.11,0,0,0-.73.43c-.27.2-.56.45-.88.73s-.64.62-1,1-.74.78-1.11,1.23a4.84,4.84,0,0,0-1.12,1.87s-1.28,2.11-1.67,2.8c-.51.92-2,3.24-2,3.24S96.83,58,96.12,58c-2.37,0,2.09-8.85,2.09-8.85.16-.65.34-1.59.56-2.84s.32-2,.32-2.23c0-.49-.17-.74-.49-.74a1,1,0,0,0-.43.15,5.62,5.62,0,0,0-.74.46c-.31.23-.65.5-1,.81s-.81.74-1.25,1.18-1,1-1.46,1.57a5.31,5.31,0,0,0-1.29,2.71A32.77,32.77,0,0,0,92,53.53c-.1,1-.16,2.06-.18,3.26L87,57.93c-.11-1.64-.17-3-.17-4.12A25.36,25.36,0,0,1,87.66,47a43.92,43.92,0,0,1,2.66-6.8s4.36-2,5.2-1c1.61,1.93-1.65,4.59-2.17,6.76q5.79-6.72,8.85-6.72a2.18,2.18,0,0,1,1.82.91,3.89,3.89,0,0,1,.7,2.4A24.62,24.62,0,0,1,104.5,45a47.77,47.77,0,0,1,5.22-4.74,5.22,5.22,0,0,1,2.91-1.1,2.35,2.35,0,0,1,1.93.94,3.77,3.77,0,0,1,.75,2.41,18.89,18.89,0,0,1-1.26,5.91,19.36,19.36,0,0,0-1.27,4.77c0,.8.33,2.1.92,2.1.37,0,2.55-1.34,2.25-2.17C114.86,50.16,88.66,62,62,63,14.8,64.9-8.07,21.53,2.57,25c2.13.69,1-3.76,2.71-4.19C12,19.06,3.28,58,59.1,59.92,74.46,60.46,99.86,53,111,51.33,120.23,50,118.7,52.75,118.7,52.75Z"/><path d="M41.54,34.93h0a12.29,12.29,0,0,0-2.1,3c-1,2-1.75,5.32-2.25,10.07a44.29,44.29,0,0,1-1.45,8,16.29,16.29,0,0,1-.94,2.46,2.39,2.39,0,0,1-.12.22c-1.08,2.08-2.4,3.13-4,3.13s-2.14-1-2.14-3c0-.2.06-.84.2-1.93,0-.25.06-.48.09-.68.07-.66.11-1.06.11-1.19a1,1,0,0,0-.25-.7.83.83,0,0,0-.63-.29,4.59,4.59,0,0,0-1.83.86l-.23.15a10.5,10.5,0,0,0-2,1.61,2.33,2.33,0,0,0-.49,1.54,5.34,5.34,0,0,0,1.7,4.07,6.22,6.22,0,0,0,4.44,1.6,11.48,11.48,0,0,0,7.06-2.42A15,15,0,0,0,38.39,60a12.91,12.91,0,0,0,2-2.56,12.68,12.68,0,0,0,1-2,37.4,37.4,0,0,0,2.17-9.92,52.63,52.63,0,0,1,1.31-8.28A5.75,5.75,0,0,1,45.49,36C44.17,35.7,42.86,35.32,41.54,34.93Zm4.18-2.35A6.83,6.83,0,0,0,43,33.75c1.06.33,2.12.65,3.19,1a3.62,3.62,0,0,0,.26-1C46.56,32.72,46.08,32.58,45.72,32.58Zm0,0A6.83,6.83,0,0,0,43,33.75c1.06.33,2.12.65,3.19,1a3.62,3.62,0,0,0,.26-1C46.56,32.72,46.08,32.58,45.72,32.58Z" style="fill:red"/><path d="M46.13,26.81a3.93,3.93,0,0,0-2-.13c-.28.05-.56.12-.83.19A15.67,15.67,0,0,0,38.82,29a26.35,26.35,0,0,0-3,2.33l-.47.43q-.45.42-.9.9c-1.62,1.7-3.12,4-2.64,6.6a4.65,4.65,0,0,0,2,3.07c.28.17.63.43.56.79a.78.78,0,0,1-.22.36,7.75,7.75,0,0,1-1.74,1.41,3.09,3.09,0,0,1-2.08.51c-1.38-.27-2.24-2-2.44-3.62-.47-3.79,1.48-7.3,3.82-9.66l.3-.3c.49-.47,1-.9,1.52-1.32.78-.62,1.6-1.19,2.41-1.74l1.91-1.3a18.62,18.62,0,0,1,2.9-1.67,10.41,10.41,0,0,1,2.16-.68A7.43,7.43,0,0,1,44.4,25a6.62,6.62,0,0,1,1.77.23,7.15,7.15,0,0,1,3,1.81,5.11,5.11,0,0,1-1.91.56A3.42,3.42,0,0,0,46.13,26.81Z" style="fill:red"/><path d="M52.67,36.21c0,.38,0,.75,0,1.12a12.79,12.79,0,0,1-.89,4c-.77,1.89-2.13,3.58-3.88,4a2.1,2.1,0,0,1-1.29,0,1.47,1.47,0,0,1-.84-1.08,2.9,2.9,0,0,1,.69-2,16.17,16.17,0,0,0,2.35-5.48h0A12.15,12.15,0,0,0,49,35.54s0-.06,0-.1a13.58,13.58,0,0,0-.39-5.6,20.75,20.75,0,0,0,1.87-1.3l.09.13a13.52,13.52,0,0,1,2,5.87A15.59,15.59,0,0,1,52.67,36.21Z" style="fill:red"/><path d="M72.86,52.75A45.94,45.94,0,0,1,67.94,57a5.16,5.16,0,0,1-2.84,1q-3.39,0-3.2-6a22.29,22.29,0,0,1-4,4.54A6,6,0,0,1,54.19,58,3.92,3.92,0,0,1,51,56.22a7.07,7.07,0,0,1-1.32-4.35,11.61,11.61,0,0,1,1.78-6.14A14.57,14.57,0,0,1,56,41a9.35,9.35,0,0,1,4.9-1.8c1.79,0,2.06,1.89,3.76,2.47,1.19.4,4.39-2.43,4.39-2.43s1-.24,1.2,0c1,1.32-1.89,6.3-1.89,6.3a26.83,26.83,0,0,0-1.46,6.51c0,1.23.43,1.84,1.31,1.84A2.9,2.9,0,0,0,70,53c.67-.59,1.62-1.5,2.84-2.72ZM57.13,53.94q2.15,0,4-3.67a14.77,14.77,0,0,0,1.9-6.75,2.92,2.92,0,0,0-.54-1.88A1.73,1.73,0,0,0,61.1,41Q59,41,57,44.61a14.65,14.65,0,0,0-1.92,6.73,3,3,0,0,0,.57,1.88A1.77,1.77,0,0,0,57.13,53.94Z" style="fill:red"/><path d="M87,50.32a28.41,28.41,0,0,1-4,3.44,4.62,4.62,0,0,1-2.47.84,2.08,2.08,0,0,1-1.83-1.09,5.63,5.63,0,0,1-.68-3c0-.56,0-1.58.17-3.07a38.55,38.55,0,0,0,6.32-8.77c.15-.31.3-.62.43-.94l-1.74-.22s0,0,0,0a26,26,0,0,1-4.42,6.79c.56-2.73,1.12-5.12,1.7-7.15.35-1.23.7-2.34,1-3.32.08-.21.16-.41.23-.61q1.52-3.95,2.31-4c.25,0,.45.16.61.48A3.05,3.05,0,0,1,85,31.08a10.76,10.76,0,0,1-.31,2.47l1.68-.2a19.25,19.25,0,0,0,.26-3.13,6.39,6.39,0,0,0-.39-2.46c-.27-.61-.61-.92-1-.92a1.29,1.29,0,0,0-.39.09S80.42,28,79.32,29a11.45,11.45,0,0,0-3.1,5.53c-.22.7-.41,1.43-.59,2.16-.34,1.32-.66,2.66-1.06,4a40.15,40.15,0,0,0-1.93,9.91c0,.31,0,.62,0,.92a9.66,9.66,0,0,0,.1,1.46h0A6.52,6.52,0,0,0,74,56.21,4.48,4.48,0,0,0,77.73,58a8.4,8.4,0,0,0,4.2-1.28,29.06,29.06,0,0,0,4.92-3.78l.21-.19V50.28Z" style="fill:red"/><path d="M118.7,52.75a37.47,37.47,0,0,1-4.59,3.94A6.65,6.65,0,0,1,110.39,58a2.81,2.81,0,0,1-2.25-1,3.94,3.94,0,0,1-.82-2.63,19.69,19.69,0,0,1,1.16-5.89,22.75,22.75,0,0,0,1.16-4.34.62.62,0,0,0-.71-.69,1.23,1.23,0,0,0-.52.15,7.11,7.11,0,0,0-.73.43c-.27.2-.56.45-.88.73s-.64.62-1,1-.74.78-1.11,1.23a4.84,4.84,0,0,0-1.12,1.87s-1.28,2.11-1.67,2.8c-.51.92-2,3.24-2,3.24S96.83,58,96.12,58c-2.37,0,2.09-8.85,2.09-8.85.16-.65.34-1.59.56-2.84s.32-2,.32-2.23c0-.49-.17-.74-.49-.74a1,1,0,0,0-.43.15,5.62,5.62,0,0,0-.74.46c-.31.23-.65.5-1,.81s-.81.74-1.25,1.18-1,1-1.46,1.57a5.31,5.31,0,0,0-1.29,2.71A32.77,32.77,0,0,0,92,53.53c-.1,1-.16,2.06-.18,3.26L87,57.93c-.11-1.64-.17-3-.17-4.12A25.36,25.36,0,0,1,87.66,47a43.92,43.92,0,0,1,2.66-6.8s4.36-2,5.2-1c1.61,1.93-1.65,4.59-2.17,6.76q5.79-6.72,8.85-6.72a2.18,2.18,0,0,1,1.82.91,3.89,3.89,0,0,1,.7,2.4A24.62,24.62,0,0,1,104.5,45a47.77,47.77,0,0,1,5.22-4.74,5.22,5.22,0,0,1,2.91-1.1,2.35,2.35,0,0,1,1.93.94,3.77,3.77,0,0,1,.75,2.41,18.89,18.89,0,0,1-1.26,5.91,19.36,19.36,0,0,0-1.27,4.77c0,.8.33,2.1.92,2.1.37,0,2.55-1.34,2.25-2.17C114.86,50.16,88.66,62,62,63,14.8,64.9-8.07,21.53,2.57,25c2.13.69,1-3.76,2.71-4.19C12,19.06,3.28,58,59.1,59.92,74.46,60.46,99.86,53,111,51.33,120.23,50,118.7,52.75,118.7,52.75Z" style="fill:red"/><path d="M120.29,13.58c.76,1.57-5.31,4.52-6.07,3s-7.6,2.34-7.6.69,5.8-2.38,7.12-3.38C117.69,10.86,119.57,12.1,120.29,13.58Z" style="fill:blue"/><path d="M119.78,24.24c.26,1.64-3.37,1.39-4.56,2.82s.87,2.46-.7,3.08c-.68.28-7.31.22-7.34-.52s4.82-4.38,5.56-4.4S119.67,23.51,119.78,24.24Z" style="fill:blue"/><path d="M68.35,6.5" style="fill:none;stroke:#000;stroke-miterlimit:10;stroke-width:0.25px"/></g></g></g></svg>