<svg id="postcard" xmlns="http://www.w3.org/2000/svg" viewBox="0 0 564 292"><title>postcard</title><rect x="2" y="2" width="560" height="288" style="fill:#f8ecc2"/><g id="contour"><polyline points="562 284 562 290 556 290" style="fill:none;stroke:#000;stroke-miterlimit:10;stroke-width:4px"/><line x1="543.82" y1="290" x2="14.09" y2="290" style="fill:none;stroke:#000;stroke-miterlimit:10;stroke-width:4px;stroke-dasharray:12.177778244018555,12.177778244018555"/><polyline points="8 290 2 290 2 284" style="fill:none;stroke:#000;stroke-miterlimit:10;stroke-width:4px"/><line x1="2" y1="272" x2="2" y2="14" style="fill:none;stroke:#000;stroke-miterlimit:10;stroke-width:4px;stroke-dasharray:12,12"/><polyline points="2 8 2 2 8 2" style="fill:none;stroke:#000;stroke-miterlimit:10;stroke-width:4px"/><line x1="20.18" y1="2" x2="549.91" y2="2" style="fill:none;stroke:#000;stroke-miterlimit:10;stroke-width:4px;stroke-dasharray:12.177778244018555,12.177778244018555"/><polyline points="556 2 562 2 562 8" style="fill:none;stroke:#000;stroke-miterlimit:10;stroke-width:4px"/><line x1="562" y1="20" x2="562" y2="278" style="fill:none;stroke:#000;stroke-miterlimit:10;stroke-width:4px;stroke-dasharray:12,12"/></g><line x1="347" y1="56" x2="347" y2="246" style="fill:none;stroke:gray;stroke-miterlimit:10"/><g id="time_stamp" data-name="time stamp"><circle cx="515.45" cy="45.36" r="34.25" style="fill:none;stroke:gray;stroke-miterlimit:10"/><circle cx="515.45" cy="45.36" r="27.4" style="fill:none;stroke:gray;stroke-miterlimit:10"/><path d="M387.67,26.52c45.5-17.41,47.5,16.84,81,0" transform="translate(2 2)" style="fill:none;stroke:gray;stroke-miterlimit:10"/><path d="M387.67,38.56c45.5-17.41,47.5,16.84,81,0" transform="translate(2 2)" style="fill:none;stroke:gray;stroke-miterlimit:10"/><path d="M387.67,51.22c45.5-17.41,47.5,16.84,81,0" transform="translate(2 2)" style="fill:none;stroke:gray;stroke-miterlimit:10"/><path d="M387.67,62.63c45.5-17.4,47.5,16.85,81,0" transform="translate(2 2)" style="fill:none;stroke:gray;stroke-miterlimit:10"/></g></svg>